<svg xmlns="http://www.w3.org/2000/svg" width="113.556" height="113.556" viewBox="0 0 113.556 113.556">
  <defs>
    <style>
      .a-flip {
        fill: none;
      }

      .b-flip {
        fill: #707070;
      }
    </style>
  </defs>
  <path class="a-flip" d="M0,0H113.556V113.556H0Z" />
  <path class="b-flip"
    d="M59.778,95.63h9.463V86.167H59.778ZM78.7,38.852h9.463V29.389H78.7ZM3,19.926V86.167a9.491,9.491,0,0,0,9.463,9.463H31.389V86.167H12.463V19.926H31.389V10.463H12.463A9.491,9.491,0,0,0,3,19.926Zm75.7-9.463v9.463h9.463A9.491,9.491,0,0,0,78.7,10.463Zm-37.852,94.63h9.463V1H40.852ZM78.7,76.7h9.463V67.241H78.7ZM59.778,19.926h9.463V10.463H59.778ZM78.7,57.778h9.463V48.315H78.7Zm0,37.852a9.491,9.491,0,0,0,9.463-9.463H78.7Z"
    transform="translate(11.195 3.732)" />
</svg>