<?xml version="1.0" encoding="utf-8"?>
<!-- Generator: Adobe Illustrator 23.1.0, SVG Export Plug-In . SVG Version: 6.00 Build 0)  -->
<svg version="1.1" id="Layer_1" xmlns="http://www.w3.org/2000/svg" xmlns:xlink="http://www.w3.org/1999/xlink" x="0px" y="0px"
	 width="145px" height="145px" viewBox="0 0 145 145" style="enable-background:new 0 0 145 145;" xml:space="preserve">
<g transform="translate(9)">
	<path style="fill:#6EE94A;" d="M146.6,10.3"/>
	<path style="fill:#6EE94A;" d="M11.7,113.8h11.4c3.2,0,5.7-2.6,5.7-5.7V56.5c0-3.2-2.6-5.7-5.7-5.7H11.7V113.8z M125.2,73
		c0.6-1.4,1-3,1-4.6v-6.2c0-6.3-5.1-11.4-11.4-11.5H83.2l5.3-26.6c0.3-1.3,0.1-2.6-0.5-3.8c-1.3-2.6-3-4.9-5-7l-2.6-2.7L43.7,47.4
		c-2.2,2.2-3.4,5.1-3.4,8.1v44.9c0,7.4,6,13.3,13.4,13.3h46.4c4,0,7.8-2.1,9.8-5.6L125.2,73L125.2,73z"/>
</g>
</svg>
