<?xml version="1.0" encoding="utf-8"?>
<!-- Generator: Adobe Illustrator 23.1.0, SVG Export Plug-In . SVG Version: 6.00 Build 0)  -->
<svg version="1.1" id="Layer_1" xmlns="http://www.w3.org/2000/svg" xmlns:xlink="http://www.w3.org/1999/xlink" x="0px" y="0px"
	 width="145px" height="145px" viewBox="0 0 145 145" style="enable-background:new 0 0 145 145;" xml:space="preserve">
<style type="text/css">
	.st0{fill:#00AAEA;}
	.st1{fill:#6EE94A;}
</style>
<path class="st0" d="M15.1,5.6"/>
<path class="st1" d="M116.2,102.6l-2.3,2.3c-2.7,2.7-7.2,2.7-9.9,0L67,78c-2.7-2.7-2.7-7.2,0-9.9l37-26.8c2.7-2.7,7.2-2.7,9.9,0l2,2
	L116.2,102.6z"/>
<path class="st1" d="M64.6,101.5l-2.3,2.3c-2.7,2.7-7.2,2.7-9.9,0l-37-26.8c-2.7-2.7-2.7-7.2,0-9.9l37-26.8c2.7-2.7,7.2-2.7,9.9,0
	l2,2L64.6,101.5z"/>
</svg>
