<?xml version="1.0" encoding="utf-8"?>
<!-- Generator: Adobe Illustrator 23.1.0, SVG Export Plug-In . SVG Version: 6.00 Build 0)  -->
<svg version="1.1" id="Layer_1" xmlns="http://www.w3.org/2000/svg" xmlns:xlink="http://www.w3.org/1999/xlink" x="0px" y="0px"
	 width="145px" height="145px" viewBox="0 0 145 145" style="enable-background:new 0 0 145 145;" xml:space="preserve">
<path style="fill:#00AAEA;" d="M15.1,5.6"/>
<path style="fill:#00AAEA;" d="M129.9,36.5h-11.4c-3.2,0-5.7,2.6-5.7,5.7v51.4c0,3.2,2.6,5.7,5.7,5.7h11.4V36.5z M16.5,77.2
	c-0.6,1.4-1,3-1,4.6v6.2c0,6.3,5.1,11.4,11.4,11.4h31.4l-5.3,26.6c-0.3,1.3-0.1,2.6,0.5,3.8c1.3,2.6,3,4.9,5,7l2.6,2.7l36.6-36.6
	c2.2-2.2,3.4-5.1,3.4-8.1V49.9c0-7.4-6-13.4-13.4-13.4H41.6c-4,0-7.8,2.1-9.8,5.5L16.5,77.2z"/>
</svg>
