<?xml version="1.0" encoding="utf-8"?>
<svg version="1.1" id="Layer_2" xmlns="http://www.w3.org/2000/svg" xmlns:xlink="http://www.w3.org/1999/xlink" x="0px" y="0px"
	 width="145px" height="145px" viewBox="0 0 145 145" style="enable-background:new 0 0 145 145;" xml:space="preserve">
<style type="text/css">
	.st0{fill-rule:evenodd;clip-rule:evenodd;fill:#FF4141;}
</style>
<path class="st0" d="M24.9,24.9L24.9,24.9c6.8-6.8,17.8-6.8,24.6,0L72,47.4l22.4-22.5c6.8-6.8,17.8-6.8,24.6,0l0,0
	c6.8,6.8,6.8,17.8,0,24.6L96.6,72l22.5,22.5c6.8,6.8,6.8,17.8,0,24.6l0,0c-6.8,6.8-17.8,6.8-24.6,0L72,96.6l-22.5,22.5
	c-6.8,6.8-17.8,6.8-24.6,0l0,0c-6.8-6.8-6.8-17.8,0-24.6L47.4,72L24.9,49.5C18.1,42.7,18.1,31.7,24.9,24.9z"/>
</svg>
